<?xml version="1.0" encoding="UTF-8" standalone="no"?>
<svg
   width="200"
   height="200"
   viewBox="0 0 52.916667 52.916666"
   version="1.1"
   id="svg8"
   inkscape:version="1.1.2 (b8e25be833, 2022-02-05)"
   sodipodi:docname="produto.svg"
   xmlns:inkscape="http://www.inkscape.org/namespaces/inkscape"
   xmlns:sodipodi="http://sodipodi.sourceforge.net/DTD/sodipodi-0.dtd"
   xmlns="http://www.w3.org/2000/svg"
   xmlns:svg="http://www.w3.org/2000/svg"
   xmlns:rdf="http://www.w3.org/1999/02/22-rdf-syntax-ns#"
   xmlns:cc="http://creativecommons.org/ns#"
   xmlns:dc="http://purl.org/dc/elements/1.1/">
  <defs
     id="defs2" />
  <sodipodi:namedview
     id="base"
     pagecolor="#ffffff"
     bordercolor="#666666"
     borderopacity="1.0"
     inkscape:pageopacity="0.0"
     inkscape:pageshadow="2"
     inkscape:zoom="2.8"
     inkscape:cx="102.85714"
     inkscape:cy="109.46429"
     inkscape:document-units="cm"
     inkscape:current-layer="layer1"
     inkscape:document-rotation="0"
     showgrid="false"
     units="px"
     inkscape:pagecheckerboard="true"
     inkscape:showpageshadow="false"
     inkscape:window-width="1920"
     inkscape:window-height="1017"
     inkscape:window-x="-8"
     inkscape:window-y="-8"
     inkscape:window-maximized="1" />
  <metadata
     id="metadata5">
    <rdf:RDF>
      <cc:Work
         rdf:about="">
        <dc:format>image/svg+xml</dc:format>
        <dc:type
           rdf:resource="http://purl.org/dc/dcmitype/StillImage" />
      </cc:Work>
    </rdf:RDF>
  </metadata>
  <g
     inkscape:label="Layer 1"
     inkscape:groupmode="layer"
     id="layer1">
    <path
       id="rect1394"
       style="opacity:1;fill:#00fa9a;fill-opacity:0.972549;fill-rule:evenodd;stroke-width:0.264583;stroke-linecap:round;stroke-linejoin:round;stop-color:#000000"
       d="M 0,0 H 52.916664 V 52.916664 H 0 Z" />
    <g
       aria-label="Imagem
do
Produto"
       id="text2193"
       style="font-style:italic;font-weight:bold;font-size:13.1516px;line-height:1.25;font-family:Ubuntu;-inkscape-font-specification:'Ubuntu Bold Italic';text-align:center;text-anchor:middle;stroke-width:0.264583">
      <path
         d="M 4.6792724,5.3697431 H 6.730922 L 4.5346048,14.483802 h -2.038498 z"
         id="path2539" />
      <path
         d="M 8.1249954,7.8816987 Q 8.3485726,7.8159407 8.598453,7.7370311 8.861485,7.6449699 9.1771234,7.5792119 q 0.32879,-0.07891 0.723338,-0.1183644 0.4076996,-0.052606 0.9337636,-0.052606 0.631277,0 1.038976,0.1578192 0.420852,0.1578192 0.762793,0.4734576 0.486609,-0.2761836 0.960067,-0.4471544 0.486609,-0.1841224 1.131038,-0.1841224 0.618125,0 1.052128,0.1709708 0.447154,0.1578192 0.736489,0.4734576 0.289335,0.3024868 0.420851,0.7364896 0.131516,0.4208512 0.131516,0.9337636 0,0.2367288 -0.03946,0.4997603 -0.0263,0.263032 -0.09206,0.526064 l -0.894308,3.735055 H 14.08267 l 0.868006,-3.656145 q 0.03946,-0.184122 0.07891,-0.4077 0.05261,-0.236728 0.05261,-0.4603055 0,-0.3682448 -0.170971,-0.6312768 -0.170971,-0.2761836 -0.670732,-0.2761836 -0.276183,0 -0.526064,0.1052128 -0.24988,0.092061 -0.447154,0.197274 0.0263,0.1052128 0.0263,0.197274 0,0.092061 0,0.1709708 0,0.2367288 -0.03946,0.4997603 -0.0263,0.263032 -0.09206,0.526064 l -0.894309,3.735055 h -1.959588 l 0.868006,-3.656145 q 0.03945,-0.184122 0.07891,-0.4077 0.05261,-0.236728 0.05261,-0.4603055 0,-0.3682448 -0.170971,-0.6312768 -0.170971,-0.2761836 -0.670732,-0.2761836 -0.210425,0 -0.355093,0.026303 -0.1446676,0.013152 -0.3419416,0.052606 L 8.4932402,14.483802 H 6.5336518 Z"
         id="path2541" />
      <path
         d="m 24.143653,11.498389 q -0.184122,0.749641 -0.105213,1.512434 0.07891,0.749641 0.302487,1.341463 l -1.749163,0.24988 q -0.07891,-0.157819 -0.144667,-0.302487 -0.06576,-0.144667 -0.131516,-0.32879 -0.368245,0.302487 -0.815399,0.499761 -0.447155,0.197274 -0.999522,0.197274 -0.65758,0 -1.131038,-0.223577 -0.460306,-0.236729 -0.762792,-0.618125 -0.289336,-0.394548 -0.420852,-0.907461 -0.131516,-0.526064 -0.131516,-1.117886 0,-0.90746 0.315639,-1.709708 0.32879,-0.8022471 0.894309,-1.3940691 0.57867,-0.6049736 1.354614,-0.9469152 0.775945,-0.3419416 1.683405,-0.3419416 0.118365,0 0.4077,0.013152 0.302487,0.013152 0.683883,0.065758 0.381396,0.039455 0.802248,0.1446676 0.420851,0.1052128 0.802247,0.2893352 z M 22.775887,9.0784943 q -0.170971,-0.026303 -0.315639,-0.039455 -0.131516,-0.013152 -0.32879,-0.013152 -0.447154,0 -0.841702,0.2235772 -0.381396,0.2235772 -0.670732,0.591822 -0.289335,0.3550929 -0.460306,0.8285509 -0.157819,0.473457 -0.157819,0.98637 0,0.631277 0.210426,0.999521 0.210425,0.368245 0.775944,0.368245 0.302487,0 0.539216,-0.118364 0.24988,-0.118365 0.526064,-0.394548 0.0263,-0.32879 0.07891,-0.683883 0.06576,-0.368245 0.131516,-0.670732 z"
         id="path2543" />
      <path
         d="m 31.363873,13.615796 q -0.197274,0.854854 -0.526064,1.472979 -0.315638,0.631277 -0.802247,1.038977 -0.473458,0.420851 -1.14419,0.618125 -0.670731,0.210426 -1.56504,0.210426 -0.828551,0 -1.39407,-0.15782 -0.565518,-0.144667 -1.025824,-0.368244 l 0.65758,-1.551889 q 0.407699,0.184122 0.841702,0.315638 0.447154,0.131516 1.091583,0.131516 0.841702,0 1.262553,-0.381396 0.434003,-0.368245 0.565519,-0.960067 l 0.05261,-0.24988 q -0.263032,0.131516 -0.565519,0.210425 -0.289335,0.07891 -0.618125,0.07891 -0.618126,0 -1.06528,-0.184123 -0.447154,-0.197274 -0.73649,-0.539215 -0.276183,-0.341942 -0.420851,-0.802248 -0.131516,-0.473457 -0.131516,-1.025825 0,-0.999521 0.368245,-1.7623139 0.368245,-0.7759444 0.973218,-1.2888568 0.618126,-0.5129124 1.407222,-0.7759444 0.802247,-0.263032 1.670253,-0.263032 0.631277,0 1.249402,0.131516 0.618125,0.131516 1.209947,0.4076996 z M 30.495868,9.0784943 Q 30.27229,9.0258879 29.9435,9.0258879 q -0.49976,0 -0.894308,0.1841224 -0.394548,0.1709708 -0.683884,0.4734576 -0.276183,0.3024868 -0.434002,0.7364891 -0.144668,0.420852 -0.144668,0.907461 0,0.236729 0.03946,0.447154 0.03946,0.197274 0.144667,0.355093 0.105213,0.144668 0.289336,0.236729 0.184122,0.09206 0.460306,0.09206 0.184122,0 0.486609,-0.06576 0.315638,-0.06576 0.565519,-0.302486 z"
         id="path2545" />
      <path
         d="m 33.244544,11.774572 q 0,-0.841702 0.289335,-1.630798 0.302487,-0.7890961 0.841703,-1.3940697 0.539215,-0.6181252 1.302008,-0.98637 0.775944,-0.3813964 1.709708,-0.3813964 0.460306,0 0.854854,0.131516 0.394548,0.131516 0.683883,0.3813964 0.302487,0.2498804 0.460306,0.6181252 0.170971,0.3550932 0.170971,0.8153992 0,0.7364893 -0.32879,1.2494023 -0.32879,0.512912 -0.920612,0.841702 -0.57867,0.315638 -1.380918,0.460306 -0.802248,0.144668 -1.749163,0.144668 0.09206,0.552367 0.394548,0.789096 0.315639,0.223577 0.98637,0.223577 0.420851,0 0.854854,-0.06576 0.434003,-0.07891 0.815399,-0.223577 l 0.144668,1.538737 q -0.368245,0.144667 -0.946915,0.263032 -0.565519,0.118364 -1.236251,0.118364 -0.815399,0 -1.380918,-0.223577 -0.552367,-0.236729 -0.90746,-0.631277 -0.341942,-0.394548 -0.499761,-0.920612 -0.157819,-0.526064 -0.157819,-1.117886 z M 37.07166,8.9338267 q -0.670732,0 -1.183644,0.4866092 -0.499761,0.4734576 -0.65758,1.2625531 0.815399,-0.0263 1.31516,-0.131516 0.49976,-0.118364 0.775944,-0.276183 0.276184,-0.157819 0.368245,-0.3419417 0.09206,-0.1841224 0.09206,-0.3682448 0,-0.6312768 -0.710186,-0.6312768 z"
         id="path2547" />
      <path
         d="m 41.411696,7.8816987 q 0.223577,-0.065758 0.473457,-0.1446676 0.263032,-0.092061 0.578671,-0.1578192 0.32879,-0.07891 0.723338,-0.1183644 0.407699,-0.052606 0.933763,-0.052606 0.631277,0 1.038977,0.1578192 0.420851,0.1578192 0.762792,0.4734576 0.48661,-0.2761836 0.960067,-0.4471544 0.486609,-0.1841224 1.131038,-0.1841224 0.618125,0 1.052128,0.1709708 0.447154,0.1578192 0.736489,0.4734576 0.289336,0.3024868 0.420852,0.7364896 0.131516,0.4208512 0.131516,0.9337636 0,0.2367288 -0.03946,0.4997603 -0.0263,0.263032 -0.09206,0.526064 l -0.894309,3.735055 H 47.36937 l 0.868006,-3.656145 q 0.03946,-0.184122 0.07891,-0.4077 0.05261,-0.236728 0.05261,-0.4603055 0,-0.3682448 -0.170971,-0.6312768 -0.170971,-0.2761836 -0.670731,-0.2761836 -0.276184,0 -0.526064,0.1052128 -0.249881,0.092061 -0.447155,0.197274 0.0263,0.1052128 0.0263,0.197274 0,0.092061 0,0.1709708 0,0.2367288 -0.03945,0.4997603 -0.0263,0.263032 -0.09206,0.526064 l -0.894308,3.735055 h -1.959589 l 0.868006,-3.656145 q 0.03945,-0.184122 0.07891,-0.4077 0.05261,-0.236728 0.05261,-0.4603055 0,-0.3682448 -0.170971,-0.6312768 -0.170971,-0.2761836 -0.670732,-0.2761836 -0.210425,0 -0.355093,0.026303 -0.144667,0.013152 -0.341941,0.052606 L 41.77994,14.483802 h -1.959588 z"
         id="path2549" />
      <path
         d="m 21.888151,31.107424 q -0.65758,0 -1.131038,-0.223577 -0.460306,-0.223577 -0.762792,-0.604974 -0.289336,-0.394548 -0.434003,-0.90746 -0.131516,-0.526064 -0.131516,-1.117886 0,-0.894309 0.315638,-1.683405 0.32879,-0.802247 0.894309,-1.394069 0.565519,-0.591822 1.341463,-0.933764 0.775944,-0.341942 1.696556,-0.341942 0.236729,0 0.434003,0.0263 0.210426,0.0263 0.420851,0.07891 l 0.710187,-2.972261 2.038498,-0.315639 -1.736011,7.220229 q -0.184123,0.749641 -0.105213,1.512434 0.07891,0.749641 0.302487,1.341463 l -1.749163,0.24988 q -0.07891,-0.157819 -0.144668,-0.302487 -0.06576,-0.144667 -0.131516,-0.32879 -0.368245,0.302487 -0.828551,0.499761 -0.447154,0.197274 -0.999521,0.197274 z m 2.262075,-5.536823 q -0.07891,-0.01315 -0.144668,-0.0263 -0.05261,-0.01315 -0.118364,-0.01315 -0.05261,-0.01315 -0.144668,-0.01315 -0.09206,0 -0.236728,0 -0.460306,0 -0.854854,0.223577 -0.394548,0.210426 -0.683884,0.578671 -0.276183,0.368245 -0.434002,0.841702 -0.15782,0.460306 -0.15782,0.946915 0,0.631277 0.210426,0.999522 0.223577,0.355093 0.789096,0.355093 0.302487,0 0.552367,-0.118364 0.249881,-0.118365 0.526064,-0.394548 0.0263,-0.32879 0.07891,-0.683883 0.06576,-0.368245 0.131516,-0.670732 z"
         id="path2551" />
      <path
         d="m 29.923781,31.107424 q -0.697035,0 -1.209948,-0.210426 -0.512912,-0.210425 -0.854854,-0.591821 -0.32879,-0.381397 -0.49976,-0.894309 -0.170971,-0.526064 -0.170971,-1.157341 0,-0.789096 0.24988,-1.578192 0.263032,-0.789096 0.762793,-1.420373 0.499761,-0.631277 1.223099,-1.025825 0.723338,-0.407699 1.657101,-0.407699 0.683884,0 1.196796,0.210425 0.526064,0.210426 0.854854,0.591822 0.341942,0.381397 0.512912,0.907461 0.170971,0.512912 0.170971,1.144189 0,0.789096 -0.24988,1.578192 -0.249881,0.789096 -0.73649,1.420373 -0.486609,0.631277 -1.223099,1.038976 -0.723338,0.394548 -1.683404,0.394548 z m 0.973218,-5.628885 q -0.434003,0 -0.762793,0.249881 -0.32879,0.24988 -0.552367,0.631277 -0.223577,0.381396 -0.341942,0.841702 -0.105212,0.447154 -0.105212,0.854854 0,0.670732 0.210425,1.038976 0.210426,0.355094 0.762793,0.355094 0.434003,0 0.762793,-0.249881 0.32879,-0.24988 0.552367,-0.631277 0.223577,-0.381396 0.32879,-0.82855 0.118364,-0.460306 0.118364,-0.868006 0,-0.670732 -0.210425,-1.025825 -0.210426,-0.368245 -0.762793,-0.368245 z"
         id="path2553" />
      <path
         d="m 6.7572378,38.14353 q 0.8285508,0 1.4861308,0.184122 0.6707316,0.170971 1.1310376,0.512913 0.460306,0.32879 0.7101868,0.815399 0.24988,0.486609 0.24988,1.091583 0,0.98637 -0.3813964,1.670253 -0.3813964,0.683883 -1.052128,1.104734 -0.6707316,0.420852 -1.578192,0.604974 -0.9074604,0.184122 -1.97274,0.184122 H 4.8371043 L 4.1006147,47.362802 H 2.0621167 L 4.2058275,38.380259 Q 4.9160139,38.248743 5.5472906,38.196136 6.191719,38.14353 6.7572378,38.14353 Z M 6.586267,39.86639 q -0.2235772,0 -0.3813964,0.01315 -0.1578192,0.01315 -0.3156384,0.0263 l -0.6312768,2.682927 h 0.5129124 q 0.5523672,0 0.9995216,-0.07891 0.460306,-0.09206 0.7759444,-0.289335 0.32879,-0.197274 0.4997608,-0.499761 0.1841224,-0.315638 0.1841224,-0.762793 0,-0.591822 -0.4340028,-0.841702 Q 7.375363,39.86639 6.586267,39.86639 Z"
         id="path2555" />
      <path
         d="m 15.555654,42.128465 q -0.263032,-0.06576 -0.526064,-0.118365 -0.24988,-0.06576 -0.749641,-0.06576 -0.184123,0 -0.4077,0.03946 -0.223577,0.0263 -0.368245,0.06576 l -1.275705,5.313247 h -1.959588 l 1.578192,-6.549497 q 0.565519,-0.184123 1.262553,-0.341942 0.710187,-0.170971 1.591344,-0.170971 0.32879,0 0.723338,0.06576 0.4077,0.05261 0.710186,0.184123 z"
         id="path2557" />
      <path
         d="m 18.738344,47.546924 q -0.697035,0 -1.209948,-0.210426 -0.512912,-0.210425 -0.854854,-0.591822 -0.32879,-0.381396 -0.49976,-0.894308 -0.170971,-0.526064 -0.170971,-1.157341 0,-0.789096 0.24988,-1.578192 0.263032,-0.789096 0.762793,-1.420373 0.499761,-0.631277 1.223099,-1.025825 0.723338,-0.407699 1.657101,-0.407699 0.683884,0 1.196796,0.210425 0.526064,0.210426 0.854854,0.591822 0.341942,0.381397 0.512912,0.907461 0.170971,0.512912 0.170971,1.144189 0,0.789096 -0.24988,1.578192 -0.249881,0.789096 -0.73649,1.420373 -0.486609,0.631276 -1.223099,1.038976 -0.723338,0.394548 -1.683404,0.394548 z m 0.973218,-5.628885 q -0.434003,0 -0.762793,0.249881 -0.32879,0.24988 -0.552367,0.631276 -0.223577,0.381397 -0.341942,0.841703 -0.105212,0.447154 -0.105212,0.854854 0,0.670731 0.210425,1.038976 0.210426,0.355093 0.762793,0.355093 0.434003,0 0.762793,-0.24988 0.32879,-0.24988 0.552367,-0.631277 0.223577,-0.381396 0.32879,-0.828551 0.118364,-0.460306 0.118364,-0.868005 0,-0.670732 -0.210425,-1.025825 -0.210426,-0.368245 -0.762793,-0.368245 z"
         id="path2559" />
      <path
         d="m 26.011169,47.546924 q -0.65758,0 -1.131037,-0.223577 -0.460306,-0.223577 -0.762793,-0.604974 -0.289335,-0.394548 -0.434003,-0.90746 -0.131516,-0.526064 -0.131516,-1.117886 0,-0.894309 0.315639,-1.683405 0.32879,-0.802248 0.894308,-1.39407 0.565519,-0.591822 1.341464,-0.933763 0.775944,-0.341942 1.696556,-0.341942 0.236729,0 0.434003,0.0263 0.210425,0.0263 0.420851,0.07891 l 0.710186,-2.972262 2.038498,-0.315638 -1.736011,7.220228 q -0.184122,0.749642 -0.105213,1.512434 0.07891,0.749642 0.302487,1.341464 l -1.749163,0.24988 q -0.07891,-0.157819 -0.144667,-0.302487 -0.06576,-0.144667 -0.131516,-0.32879 -0.368245,0.302487 -0.828551,0.499761 -0.447154,0.197274 -0.999522,0.197274 z M 28.273244,42.0101 q -0.07891,-0.01315 -0.144667,-0.0263 -0.05261,-0.01315 -0.118364,-0.01315 -0.05261,-0.01315 -0.144668,-0.01315 -0.09206,0 -0.236729,0 -0.460306,0 -0.854854,0.223577 -0.394548,0.210426 -0.683883,0.578671 -0.276184,0.368244 -0.434003,0.841702 -0.157819,0.460306 -0.157819,0.946915 0,0.631277 0.210426,0.999522 0.223577,0.355093 0.789096,0.355093 0.302486,0 0.552367,-0.118364 0.24988,-0.118365 0.526064,-0.394548 0.0263,-0.32879 0.07891,-0.683884 0.06576,-0.368244 0.131516,-0.670731 z"
         id="path2561" />
      <path
         d="m 38.163251,40.44506 -0.933764,3.932328 q -0.184122,0.749642 -0.105213,1.512434 0.07891,0.749642 0.302487,1.341464 l -1.749163,0.24988 q -0.144667,-0.289335 -0.276183,-0.644428 -0.368245,0.289335 -0.828551,0.486609 -0.460306,0.197274 -1.025825,0.197274 -0.775944,0 -1.262553,-0.276184 -0.473458,-0.289335 -0.710187,-0.749641 -0.236729,-0.473458 -0.263032,-1.078431 -0.01315,-0.604974 0.144668,-1.236251 l 0.894309,-3.735054 h 1.959588 l -0.881157,3.708751 q -0.06576,0.289335 -0.118365,0.591822 -0.03945,0.302487 0,0.565519 0.03945,0.24988 0.197274,0.420851 0.170971,0.157819 0.526064,0.157819 0.302487,0 0.552368,-0.105212 0.263032,-0.118365 0.552367,-0.394548 0.0263,-0.32879 0.07891,-0.683884 0.06576,-0.368244 0.131516,-0.670731 l 0.854854,-3.590387 z"
         id="path2563" />
      <path
         d="m 40.438469,38.7222 2.038498,-0.315638 -0.49976,2.038498 h 2.183165 l -0.394548,1.604495 H 41.59581 l -0.57867,2.419895 q -0.07891,0.302486 -0.105213,0.565518 -0.01315,0.263032 0.06576,0.460306 0.09206,0.184123 0.302487,0.289336 0.210425,0.105212 0.57867,0.105212 0.315639,0 0.604974,-0.05261 0.302487,-0.06576 0.604973,-0.170971 l 0.144668,1.499283 q -0.394548,0.144667 -0.854854,0.24988 -0.460306,0.105213 -1.091583,0.105213 -0.90746,0 -1.407221,-0.263032 -0.499761,-0.276184 -0.710186,-0.73649 -0.210426,-0.473457 -0.184123,-1.078431 0.0263,-0.604974 0.184123,-1.275705 z"
         id="path2565" />
      <path
         d="m 46.961675,47.546924 q -0.697035,0 -1.209947,-0.210426 -0.512913,-0.210425 -0.854854,-0.591822 -0.32879,-0.381396 -0.499761,-0.894308 -0.170971,-0.526064 -0.170971,-1.157341 0,-0.789096 0.249881,-1.578192 0.263032,-0.789096 0.762792,-1.420373 0.499761,-0.631277 1.223099,-1.025825 0.723338,-0.407699 1.657102,-0.407699 0.683883,0 1.196795,0.210425 0.526064,0.210426 0.854854,0.591822 0.341942,0.381397 0.512913,0.907461 0.170971,0.512912 0.170971,1.144189 0,0.789096 -0.249881,1.578192 -0.24988,0.789096 -0.736489,1.420373 -0.48661,0.631276 -1.223099,1.038976 -0.723338,0.394548 -1.683405,0.394548 z m 0.973218,-5.628885 q -0.434002,0 -0.762792,0.249881 -0.32879,0.24988 -0.552368,0.631276 -0.223577,0.381397 -0.341941,0.841703 -0.105213,0.447154 -0.105213,0.854854 0,0.670731 0.210426,1.038976 0.210425,0.355093 0.762792,0.355093 0.434003,0 0.762793,-0.24988 0.32879,-0.24988 0.552367,-0.631277 0.223578,-0.381396 0.32879,-0.828551 0.118365,-0.460306 0.118365,-0.868005 0,-0.670732 -0.210426,-1.025825 -0.210425,-0.368245 -0.762793,-0.368245 z"
         id="path2567" />
    </g>
  </g>
</svg>
